<?xml version="1.0" encoding="UTF-8"?><svg id="Livello_2" xmlns="http://www.w3.org/2000/svg" viewBox="0 0 908.49 373.52"><defs><style>.cls-1{fill:#009639;}.cls-2{fill:#fff;}.cls-3{fill:#e01f24;}.cls-4{fill:#d8c383;}.cls-5{fill:#1c3f8d;}</style></defs><g id="Layer_1"><polygon class="cls-2" points="86.89 94.15 86.89 331.65 138.79 366.19 191.1 331.65 191.1 94.15 86.89 94.15"/><path class="cls-1" d="m6.66,94.15v113.66c0,56.2,32.31,88.99,48.21,102.13,5.29,4.34,8.62,6.18,8.81,6.29l29.01,19.25V94.15H6.66Z"/><path class="cls-3" d="m185.37,335.48l29.34-19.36s3.34-1.84,8.64-6.19c5.28-4.35,12.36-10.61,19.43-19.56,14.16-17.93,28.66-44.59,28.67-82.12v-114.11h-86.08v241.33Z"/><rect class="cls-5" x="6.68" y="6.25" width="264.86" height="89.25"/><rect class="cls-4" x="186.43" y="29.44" width="7.81" height="44.8"/><rect class="cls-4" x="34.82" y="29.44" width="7.8" height="44.8"/><polygon class="cls-4" points="68.46 36.73 54.25 36.73 54.25 29.44 90.61 29.44 90.61 36.73 76.4 36.73 76.4 74.25 68.46 74.25 68.46 36.73"/><path class="cls-4" d="m111.75,29.12h7.3l19.71,45.12h-8.33l-4.55-10.81h-21.18l-4.62,10.81h-8.06l19.72-45.12Zm11.26,27.33l-7.75-17.93-7.68,17.93h15.42Z"/><polygon class="cls-4" points="148.14 29.44 155.95 29.44 155.95 67.13 177.27 67.13 177.27 74.24 148.14 74.24 148.14 29.44"/><path class="cls-4" d="m224.74,29.12h7.3l19.7,45.12h-8.31l-4.56-10.81h-21.18l-4.61,10.81h-8.06l19.71-45.12Zm11.26,27.33l-7.74-17.93-7.68,17.93h15.43Z"/><path class="cls-4" d="m136.37,373.52l-76.22-50.92c-.42-.25-60.06-35.43-60.15-114.01V0h277.94v208.51c-.09,78.58-59.45,113.83-59.7,113.97l-76.67,51.03h-5.2Zm2.78-8.69l74.81-49.56s3.31-1.81,8.54-6.12c5.23-4.31,12.24-10.51,19.25-19.36,14.02-17.75,28.37-44.15,28.38-81.31V7.86H7.97v200.17c0,55.64,31.99,88.11,47.73,101.11,5.23,4.31,8.54,6.12,8.72,6.23l74.38,49.45h.35Z"/><polygon class="cls-5" points="330.05 10.74 354.99 10.74 354.99 14.36 333.97 14.36 333.97 26.77 352.76 26.77 352.76 30.33 333.97 30.33 333.97 45.46 330.05 45.46 330.05 10.74"/><polygon class="cls-5" points="362.58 10.74 387.66 10.74 387.66 14.31 366.48 14.31 366.48 26.16 385.43 26.16 385.43 29.73 366.48 29.73 366.48 41.89 387.92 41.89 387.92 45.46 362.58 45.46 362.58 10.74"/><path class="cls-5" d="m395.79,10.73h12.06c10.9,0,18.44,7.5,18.44,17.27v.1c0,9.78-7.54,17.36-18.44,17.36h-12.06V10.73Zm12.06,31.1c8.78,0,14.38-5.96,14.38-13.64v-.1c0-7.69-5.61-13.74-14.38-13.74h-8.14v27.47h8.14Z"/><polygon class="cls-5" points="434.56 10.74 459.65 10.74 459.65 14.31 438.48 14.31 438.48 26.16 457.42 26.16 457.42 29.73 438.48 29.73 438.48 41.89 459.9 41.89 459.9 45.46 434.56 45.46 434.56 10.74"/><path class="cls-5" d="m467.78,10.73h14.92c4.27,0,7.69,1.3,9.87,3.48,1.69,1.68,2.69,4.11,2.69,6.84v.11c0,5.74-3.98,9.11-9.43,10.11l10.67,14.19h-4.82l-10.07-13.5h-9.92v13.5h-3.91V10.73Zm14.57,17.72c5.2,0,8.92-2.67,8.92-7.14v-.1c0-4.28-3.26-6.86-8.87-6.86h-10.72v14.1h10.66Z"/><path class="cls-5" d="m516.47,10.49h3.67l15.82,34.96h-4.21l-4.07-9.17h-18.9l-4.11,9.17h-4.02l15.83-34.96Zm9.67,22.28l-7.88-17.72-7.95,17.72h15.83Z"/><polygon class="cls-5" points="541.2 42.83 563.66 14.26 541.94 14.26 541.94 10.74 569.03 10.74 569.03 13.37 546.52 41.93 569.03 41.93 569.03 45.46 541.2 45.46 541.2 42.83"/><rect class="cls-5" x="577.5" y="10.74" width="3.92" height="34.72"/><path class="cls-5" d="m590.04,28.2v-.11c0-9.57,7.18-17.95,17.75-17.95s17.66,8.29,17.66,17.86q.05.06,0,.09c0,9.58-7.2,17.97-17.76,17.97s-17.65-8.3-17.65-17.87m31.34,0v-.11c0-7.88-5.76-14.33-13.69-14.33s-13.59,6.35-13.59,14.24v.09c0,7.9,5.76,14.35,13.69,14.35s13.59-6.37,13.59-14.24"/><polygon class="cls-5" points="633.72 10.74 637.38 10.74 659.26 38.56 659.26 10.74 663.08 10.74 663.08 45.46 659.95 45.46 637.53 16.99 637.53 45.46 633.72 45.46 633.72 10.74"/><polygon class="cls-5" points="672.88 10.74 697.98 10.74 697.98 14.31 676.8 14.31 676.8 26.16 695.74 26.16 695.74 29.73 676.8 29.73 676.8 41.89 698.22 41.89 698.22 45.46 672.88 45.46 672.88 10.74"/><path class="cls-5" d="m327.76,94.65l2.43-2.87c3.62,3.27,7.1,4.9,11.91,4.9s7.73-2.46,7.73-5.9v-.09c0-3.23-1.74-5.06-9.03-6.61-7.99-1.73-11.65-4.3-11.65-10.01v-.09c0-5.46,4.82-9.48,11.41-9.48,5.06,0,8.68,1.43,12.21,4.26l-2.28,3.03c-3.23-2.62-6.46-3.77-10.03-3.77-4.52,0-7.39,2.48-7.39,5.6v.11c0,3.27,1.79,5.11,9.43,6.75,7.74,1.68,11.31,4.51,11.31,9.81v.09c0,5.97-4.96,9.83-11.86,9.83-5.51,0-10.01-1.84-14.18-5.56"/><path class="cls-5" d="m361.78,64.99h13c7.83,0,12.99,4.16,12.99,11.01v.09c0,7.5-6.25,11.37-13.64,11.37h-8.44v12.26h-3.9v-34.72Zm12.5,18.9c5.74,0,9.52-3.07,9.52-7.65v-.09c0-4.96-3.72-7.54-9.32-7.54h-8.79v15.28h8.6Z"/><path class="cls-5" d="m393.37,82.44v-.11c0-9.56,7.19-17.95,17.75-17.95s17.66,8.28,17.66,17.86q.04.06,0,.09c0,9.58-7.2,17.97-17.76,17.97s-17.65-8.3-17.65-17.87m31.34,0v-.11c0-7.88-5.75-14.33-13.7-14.33s-13.58,6.35-13.58,14.24v.09c0,7.9,5.75,14.35,13.68,14.35s13.59-6.37,13.59-14.24"/><path class="cls-5" d="m437.04,64.99h14.93c4.26,0,7.7,1.29,9.87,3.47,1.69,1.69,2.69,4.11,2.69,6.84v.11c0,5.75-3.98,9.12-9.43,10.12l10.67,14.19h-4.82l-10.07-13.5h-9.92v13.5h-3.92v-34.73Zm14.58,17.71c5.21,0,8.93-2.67,8.93-7.15v-.09c0-4.27-3.28-6.86-8.88-6.86h-10.72v14.1h10.67Z"/><polygon class="cls-5" points="482.06 68.61 470.41 68.61 470.41 64.99 497.68 64.99 497.68 68.61 486.03 68.61 486.03 99.71 482.06 99.71 482.06 68.61"/><rect class="cls-5" x="505.36" y="64.99" width="3.92" height="34.71"/><polygon class="cls-5" points="516.46 64.99 520.82 64.99 533.16 94.9 545.58 64.99 549.79 64.99 534.86 99.94 531.4 99.94 516.46 64.99"/><path class="cls-5" d="m564.16,64.73h3.67l15.82,34.96h-4.21l-4.07-9.17h-18.9l-4.12,9.17h-4.01l15.82-34.96Zm9.67,22.28l-7.88-17.71-7.95,17.71h15.83Z"/><polygon class="cls-5" points="605.35 64.99 609.02 64.99 630.88 92.81 630.88 64.99 634.71 64.99 634.71 99.71 631.59 99.71 609.17 71.24 609.17 99.71 605.35 99.71 605.35 64.99"/><path class="cls-5" d="m657.37,64.73h3.66l15.82,34.96h-4.22l-4.06-9.17h-18.9l-4.12,9.17h-4.02l15.84-34.96Zm9.67,22.28l-7.88-17.71-7.95,17.71h15.83Z"/><polygon class="cls-5" points="682.1 97.08 704.57 68.5 682.84 68.5 682.84 64.99 709.93 64.99 709.93 67.62 687.4 96.18 709.93 96.18 709.93 99.71 682.1 99.71 682.1 97.08"/><rect class="cls-5" x="718.38" y="64.99" width="3.92" height="34.71"/><path class="cls-5" d="m730.93,82.44v-.11c0-9.56,7.19-17.95,17.75-17.95s17.66,8.28,17.66,17.86q.05.06,0,.09c0,9.58-7.19,17.97-17.75,17.97s-17.65-8.3-17.65-17.87m31.34,0v-.11c0-7.88-5.76-14.33-13.69-14.33s-13.6,6.35-13.6,14.24v.09c0,7.9,5.76,14.35,13.69,14.35s13.6-6.37,13.6-14.24"/><polygon class="cls-5" points="774.12 64.99 777.8 64.99 799.68 92.81 799.68 64.99 803.48 64.99 803.48 99.71 800.36 99.71 777.95 71.24 777.95 99.71 774.12 99.71 774.12 64.99"/><path class="cls-5" d="m826.13,64.73h3.66l15.84,34.96h-4.22l-4.06-9.17h-18.9l-4.13,9.17h-4.02l15.82-34.96Zm9.69,22.28l-7.9-17.71-7.94,17.71h15.84Z"/><polygon class="cls-5" points="852.46 64.99 856.37 64.99 856.37 96.09 875.92 96.09 875.92 99.71 852.46 99.71 852.46 64.99"/><polygon class="cls-5" points="883.15 64.99 908.25 64.99 908.25 68.57 887.06 68.57 887.06 80.41 906.01 80.41 906.01 83.98 887.06 83.98 887.06 96.13 908.49 96.13 908.49 99.71 883.15 99.71 883.15 64.99"/><path class="cls-5" d="m330.07,119.24h14.94c4.27,0,7.69,1.28,9.87,3.47,1.69,1.68,2.68,4.11,2.68,6.84v.11c0,5.74-3.98,9.11-9.43,10.12l10.67,14.18h-4.82l-10.07-13.5h-9.91v13.5h-3.93v-34.72Zm14.59,17.71c5.21,0,8.92-2.68,8.92-7.15v-.08c0-4.27-3.25-6.86-8.87-6.86h-10.71v14.09h10.66Z"/><rect class="cls-5" x="366.27" y="119.24" width="3.92" height="34.72"/><path class="cls-5" d="m378.81,136.7v-.11c0-9.81,7.34-17.94,17.56-17.94,6.3,0,10.07,2.22,13.54,5.51l-2.68,2.88c-2.94-2.79-6.2-4.77-10.91-4.77-7.68,0-13.44,6.25-13.44,14.24v.08c0,8.04,5.8,14.35,13.44,14.35,4.77,0,7.89-1.83,11.21-5l2.59,2.53c-3.63,3.66-7.6,6.09-13.88,6.09-10.02,0-17.42-7.88-17.42-17.85"/><path class="cls-5" d="m415.4,136.7v-.11c0-9.55,7.19-17.94,17.76-17.94s17.67,8.28,17.67,17.86t0,.08c0,9.59-7.19,17.96-17.77,17.96s-17.65-8.28-17.65-17.85m31.35,0v-.11c0-7.88-5.77-14.32-13.7-14.32s-13.59,6.35-13.59,14.24v.08c0,7.9,5.75,14.35,13.69,14.35s13.59-6.36,13.59-14.24"/><polygon class="cls-5" points="459.08 119.24 462.75 119.24 484.62 147.06 484.62 119.24 488.44 119.24 488.44 153.96 485.31 153.96 462.89 125.49 462.89 153.96 459.08 153.96 459.08 119.24"/><path class="cls-5" d="m496.71,136.7v-.11c0-9.55,7.2-17.94,17.76-17.94s17.66,8.28,17.66,17.86t0,.08c0,9.59-7.19,17.96-17.77,17.96s-17.65-8.28-17.65-17.85m31.34,0v-.11c0-7.88-5.75-14.32-13.7-14.32s-13.58,6.35-13.58,14.24v.08c0,7.9,5.74,14.35,13.69,14.35s13.58-6.36,13.58-14.24"/><path class="cls-5" d="m538.1,148.9l2.43-2.88c3.62,3.28,7.1,4.91,11.91,4.91s7.74-2.49,7.74-5.91v-.09c0-3.23-1.74-5.06-9.03-6.61-7.99-1.73-11.66-4.31-11.66-10.02v-.08c0-5.46,4.81-9.48,11.41-9.48,5.07,0,8.68,1.44,12.21,4.27l-2.28,3.02c-3.23-2.62-6.46-3.76-10.04-3.76-4.49,0-7.37,2.48-7.37,5.61v.1c0,3.26,1.78,5.1,9.42,6.74,7.74,1.69,11.31,4.52,11.31,9.82v.1c0,5.95-4.96,9.82-11.85,9.82-5.51,0-10.02-1.84-14.19-5.55"/><path class="cls-5" d="m570.58,136.7v-.11c0-9.81,7.34-17.94,17.56-17.94,6.3,0,10.07,2.22,13.54,5.51l-2.69,2.88c-2.92-2.79-6.18-4.77-10.91-4.77-7.69,0-13.44,6.25-13.44,14.24v.08c0,8.04,5.8,14.35,13.44,14.35,4.77,0,7.9-1.83,11.21-5l2.58,2.53c-3.62,3.66-7.59,6.09-13.88,6.09-10.02,0-17.41-7.88-17.41-17.85"/><rect class="cls-5" x="610.67" y="119.24" width="3.92" height="34.72"/><path class="cls-5" d="m625.16,139.44v-20.2h3.92v19.94c0,7.49,3.97,11.7,10.61,11.7s10.46-3.85,10.46-11.44v-20.2h3.92v19.89c0,10.11-5.8,15.38-14.49,15.38s-14.43-5.27-14.43-15.07"/><polygon class="cls-5" points="672.52 122.86 660.86 122.86 660.86 119.23 688.13 119.23 688.13 122.86 676.48 122.86 676.48 153.96 672.52 153.96 672.52 122.86"/><path class="cls-5" d="m702.59,118.99h3.68l15.81,34.97h-4.22l-4.06-9.17h-18.9l-4.12,9.17h-4.01l15.82-34.97Zm9.68,22.27l-7.9-17.71-7.93,17.71h15.83Z"/><path class="cls-5" d="m330.04,173.61h12.06c10.91,0,18.44,7.5,18.44,17.26v.11c0,9.77-7.53,17.35-18.44,17.35h-12.06v-34.72Zm12.06,31.1c8.77,0,14.38-5.95,14.38-13.64v-.09c0-7.7-5.61-13.75-14.38-13.75h-8.13v27.47h8.13Z"/><path class="cls-5" d="m381.66,173.36h3.68l15.81,34.97h-4.21l-4.07-9.18h-18.9l-4.12,9.18h-4.02l15.83-34.97Zm9.67,22.28l-7.88-17.72-7.95,17.72h15.83Z"/><polygon class="cls-5" points="408 173.4 411.93 173.4 411.93 204.64 431.56 204.64 431.56 208.27 408 208.27 408 173.4"/><path class="cls-5" d="m462.39,209.13c-2.57,0-4.92-.46-7.12-1.39-2.2-.93-4.09-2.2-5.68-3.82-1.59-1.6-2.83-3.5-3.73-5.7-.91-2.2-1.35-4.52-1.35-7.02v-.11c0-2.49.44-4.82,1.35-7,.9-2.18,2.14-4.08,3.73-5.73,1.59-1.64,3.5-2.93,5.73-3.88,2.21-.95,4.68-1.42,7.38-1.42,1.63,0,3.11.13,4.44.4,1.35.27,2.57.62,3.68,1.1,1.1.46,2.1,1.03,3.02,1.69.95.67,1.8,1.39,2.6,2.2l-4.88,5.64c-1.35-1.25-2.75-2.2-4.16-2.91-1.4-.68-3-1.05-4.75-1.05-1.46,0-2.82.29-4.08.85-1.24.58-2.31,1.35-3.2,2.34-.89.99-1.6,2.15-2.09,3.47-.49,1.29-.75,2.7-.75,4.2v.1c0,1.49.27,2.91.75,4.24.49,1.32,1.19,2.48,2.08,3.47.86,1.01,1.93,1.8,3.17,2.39,1.24.58,2.62.86,4.12.86,1.98,0,3.67-.37,5.06-1.1,1.37-.73,2.75-1.73,4.1-2.99l4.9,4.93c-.93.98-1.84,1.83-2.81,2.6-.95.77-2.01,1.43-3.16,1.98-1.14.53-2.4.95-3.77,1.24-1.36.28-2.87.42-4.58.42"/><path class="cls-5" d="m499.74,209.13c-2.68,0-5.17-.46-7.4-1.42-2.26-.94-4.22-2.22-5.86-3.83-1.65-1.61-2.93-3.51-3.85-5.69-.92-2.18-1.36-4.49-1.36-6.99v-.11c0-2.48.45-4.82,1.38-6.99.93-2.18,2.22-4.08,3.86-5.73,1.66-1.64,3.59-2.93,5.88-3.89,2.28-.96,4.77-1.42,7.44-1.42s5.17.46,7.43,1.42c2.27.96,4.21,2.23,5.85,3.83,1.64,1.62,2.93,3.51,3.83,5.68.91,2.19,1.38,4.51,1.38,7.01v.09c0,2.5-.46,4.83-1.4,7.02-.92,2.18-2.21,4.07-3.85,5.73-1.64,1.64-3.61,2.93-5.88,3.87-2.27.96-4.76,1.42-7.46,1.42m.1-7.08c1.55,0,2.93-.28,4.25-.84,1.3-.56,2.38-1.35,3.3-2.34.93-.98,1.62-2.15,2.15-3.45.51-1.31.77-2.71.77-4.21v-.11c0-1.49-.26-2.9-.77-4.23-.53-1.33-1.24-2.5-2.19-3.49-.93-.99-2.07-1.78-3.38-2.38-1.29-.57-2.7-.86-4.23-.86s-2.97.27-4.24.85c-1.29.57-2.4,1.34-3.31,2.34-.89,1-1.61,2.15-2.12,3.47-.53,1.31-.79,2.7-.79,4.2v.09c0,1.5.27,2.92.79,4.25.51,1.32,1.25,2.47,2.18,3.47.95,1.01,2.05,1.81,3.33,2.39,1.29.56,2.7.86,4.26.86"/><polygon class="cls-5" points="525.14 173.67 532.22 173.67 548.57 195.13 548.57 173.67 556.13 173.67 556.13 208.54 549.6 208.54 532.73 186.37 532.73 208.54 525.14 208.54 525.14 173.67"/><rect class="cls-5" x="564.84" y="173.66" width="7.68" height="34.88"/></g></svg>