<?xml version="1.0" encoding="utf-8"?>
<!-- Generator: Adobe Illustrator 25.1.0, SVG Export Plug-In . SVG Version: 6.00 Build 0)  -->
<svg version="1.1" id="Livello_1" xmlns="http://www.w3.org/2000/svg" xmlns:xlink="http://www.w3.org/1999/xlink" x="0px" y="0px"
	 viewBox="0 0 396.44 61.11" style="enable-background:new 0 0 396.44 61.11;" xml:space="preserve">
<style type="text/css">
	.st0{fill:#3D5FA8;}
	.st1{fill:#2BBCEE;}
	.st2{fill:#9C9B9B;}
</style>
<g>
	<g>
		<path class="st0" d="M12.75,4.48h28.26l-2.4,9.62H22.26l-1.34,5.4h14.58l-2.3,9.19H18.63l-3.31,13.19H3.4L12.75,4.48z"/>
		<path class="st0" d="M43.47,4.48h28.2l-2.35,9.51H53.03l-1.34,5.13h14.58l-2.14,8.71H49.55l-1.34,5.23h16.4l-2.19,8.81H34.12
			L43.47,4.48z"/>
		<path class="st0" d="M74.66,4.48H88.6c2.49,0,4.82,0.37,6.97,1.1c2.15,0.73,4.03,1.8,5.64,3.21c1.6,1.41,2.87,3.13,3.79,5.18
			c0.93,2.05,1.39,4.37,1.39,6.97c0,3.03-0.59,5.81-1.76,8.36c-1.18,2.55-2.8,4.75-4.89,6.62s-4.55,3.33-7.4,4.38
			c-2.85,1.05-5.93,1.58-9.24,1.58H65.31L74.66,4.48z M84.12,14.25l-4.49,18.11h3.15c1.67,0,3.21-0.24,4.62-0.72
			c1.41-0.48,2.63-1.17,3.66-2.06c1.03-0.89,1.83-1.98,2.4-3.29c0.57-1.3,0.85-2.79,0.85-4.46c0-2.21-0.67-4.02-2-5.45
			c-1.34-1.42-3.3-2.14-5.9-2.14H84.12z"/>
		<path class="st0" d="M113.6,4.48h28.2l-2.35,9.51h-16.29l-1.34,5.13h14.58l-2.14,8.71h-14.58l-1.34,5.23h16.4l-2.19,8.81h-28.31
			L113.6,4.48z"/>
		<path class="st0" d="M144.8,4.48h16.61c3.74,0,6.61,0.96,8.63,2.88c2.01,1.92,3.02,4.51,3.02,7.75c0,1.6-0.25,3.11-0.75,4.51
			c-0.5,1.41-1.2,2.67-2.11,3.79c-0.91,1.12-1.99,2.1-3.23,2.94c-1.25,0.84-2.62,1.47-4.11,1.9l7.53,13.62h-13.19l-5.82-12.66h-1.12
			l-3.15,12.66h-11.64L144.8,4.48z M154.04,14.2l-1.71,6.84h4.7c1.39,0,2.45-0.38,3.18-1.15c0.73-0.77,1.1-1.68,1.1-2.75
			c0-0.89-0.27-1.6-0.8-2.14c-0.53-0.53-1.39-0.8-2.56-0.8H154.04z"/>
		<path class="st1" d="M187.8,29.58l-4.33,3.95l-1.98,8.33h-11.91l9.35-37.39h11.91l-3.53,13.25l14.05-13.25h15.38l-19.71,17.79
			l11.54,19.6h-14.26L187.8,29.58z"/>
		<path class="st1" d="M206.44,24.83c0-2.88,0.53-5.6,1.6-8.15c1.07-2.55,2.55-4.76,4.46-6.65c1.9-1.89,4.17-3.37,6.78-4.46
			c2.62-1.09,5.48-1.63,8.57-1.63c2.6,0,5.04,0.41,7.32,1.23c2.28,0.82,4.25,1.99,5.93,3.53c1.67,1.53,2.99,3.37,3.95,5.53
			c0.96,2.16,1.44,4.59,1.44,7.29c0,2.88-0.53,5.6-1.6,8.15c-1.07,2.55-2.56,4.76-4.46,6.65c-1.91,1.89-4.17,3.37-6.78,4.46
			c-2.62,1.09-5.48,1.63-8.57,1.63c-2.64,0-5.08-0.41-7.34-1.23c-2.26-0.82-4.23-1.98-5.9-3.5c-1.67-1.51-2.99-3.36-3.95-5.53
			C206.92,29.97,206.44,27.53,206.44,24.83z M234.48,22.48c0-1.18-0.19-2.24-0.56-3.21c-0.37-0.96-0.88-1.77-1.52-2.43
			c-0.64-0.66-1.41-1.18-2.3-1.55c-0.89-0.37-1.87-0.56-2.94-0.56c-1.28,0-2.45,0.25-3.5,0.75c-1.05,0.5-1.97,1.18-2.75,2.03
			c-0.78,0.85-1.39,1.85-1.82,2.99c-0.43,1.14-0.64,2.33-0.64,3.58c0,1.18,0.19,2.24,0.56,3.21c0.37,0.96,0.88,1.77,1.52,2.43
			c0.64,0.66,1.41,1.18,2.3,1.55c0.89,0.37,1.87,0.56,2.94,0.56c1.21,0,2.35-0.25,3.42-0.75c1.07-0.5,1.99-1.17,2.78-2
			c0.78-0.84,1.4-1.82,1.84-2.96C234.26,24.97,234.48,23.76,234.48,22.48z"/>
		<path class="st1" d="M255.16,41.87h-10.74l9.35-37.39h11.59l6.04,13.67l12.45-13.67h13.09l-9.35,37.39h-10.74l5.02-20.03
			l0.48-1.87l-14.37,14.85l-7.21-15.54l-0.53,2.19L255.16,41.87z"/>
		<path class="st1" d="M298.74,4.48h17.04c1.85,0,3.45,0.23,4.78,0.69c1.34,0.46,2.44,1.09,3.31,1.87c0.87,0.78,1.51,1.69,1.92,2.72
			c0.41,1.03,0.61,2.12,0.61,3.26c0,2.14-0.61,4.04-1.82,5.72c-1.21,1.67-2.92,2.99-5.13,3.95c1.46,0.71,2.64,1.67,3.55,2.86
			c0.91,1.19,1.36,2.68,1.36,4.46c0,1.6-0.3,3.12-0.91,4.54c-0.61,1.42-1.5,2.68-2.7,3.77c-1.19,1.09-2.67,1.95-4.43,2.59
			c-1.76,0.64-3.82,0.96-6.17,0.96H289.4L298.74,4.48z M304.67,27.13l-1.66,6.57h5.56c1.46,0,2.57-0.37,3.34-1.12
			c0.77-0.75,1.15-1.64,1.15-2.67c0-0.85-0.29-1.53-0.88-2.03c-0.59-0.5-1.47-0.75-2.64-0.75H304.67z M308.15,13.29l-1.55,6.09h4.65
			c1.53,0,2.62-0.36,3.26-1.07c0.64-0.71,0.96-1.51,0.96-2.4c0-0.82-0.28-1.46-0.83-1.92c-0.55-0.46-1.43-0.69-2.64-0.69H308.15z"/>
		<path class="st1" d="M349.86,35.62h-13.19l-3.79,6.25h-12.55l25-37.39h12.66l3.74,37.39H350.4L349.86,35.62z M349.17,27.55
			l-0.96-10.84l-6.57,10.84H349.17z"/>
		<path class="st1" d="M363.97,41.87l6.84-27.51h-11.06l2.51-9.88h34.19l-2.51,9.88h-11.16l-6.84,27.51H363.97z"/>
	</g>
	<g>
		<path class="st2" d="M1.84,49.71H6.4l-0.28,1.1H2.79l-0.5,2.03h2.97l-0.27,1.1H2.01l-0.78,3.1H0L1.84,49.71z"/>
		<path class="st2" d="M7.36,49.71h4.56l-0.28,1.1H8.32l-0.47,1.92h2.99l-0.27,1.1H7.57l-0.53,2.14h3.38l-0.27,1.08H5.53L7.36,49.71
			z"/>
		<path class="st2" d="M13.02,49.71h2.23c0.47,0,0.9,0.08,1.31,0.23c0.4,0.15,0.75,0.37,1.04,0.66s0.52,0.62,0.69,1.01
			c0.16,0.39,0.25,0.83,0.25,1.31c0,0.56-0.1,1.09-0.31,1.59c-0.21,0.5-0.5,0.94-0.87,1.32c-0.37,0.38-0.81,0.68-1.32,0.9
			c-0.51,0.22-1.06,0.33-1.66,0.33h-3.2L13.02,49.71z M13.98,50.82l-1.29,5.14h1.66c0.44,0,0.84-0.08,1.2-0.24
			c0.36-0.16,0.66-0.38,0.92-0.65c0.26-0.27,0.46-0.59,0.6-0.94c0.14-0.36,0.21-0.73,0.21-1.12c0-0.31-0.05-0.6-0.15-0.87
			c-0.1-0.27-0.25-0.5-0.44-0.69c-0.19-0.2-0.43-0.35-0.7-0.46c-0.28-0.11-0.59-0.16-0.94-0.16H13.98z"/>
		<path class="st2" d="M20.41,49.71h4.56l-0.28,1.1h-3.32l-0.47,1.92h2.99l-0.27,1.1h-2.99l-0.53,2.14h3.38l-0.27,1.08h-4.62
			L20.41,49.71z"/>
		<path class="st2" d="M26.06,49.71h2.18c0.74,0,1.3,0.17,1.67,0.52c0.37,0.35,0.56,0.8,0.56,1.36c0,0.31-0.05,0.61-0.16,0.89
			c-0.1,0.28-0.26,0.53-0.45,0.74c-0.2,0.21-0.43,0.39-0.71,0.54c-0.28,0.15-0.59,0.24-0.93,0.29H28.2l1.72,3h-1.35l-1.62-2.94H26.2
			l-0.73,2.94h-1.24L26.06,49.71z M27.03,50.81l-0.56,2.22h1.29c0.47,0,0.83-0.12,1.08-0.37c0.25-0.25,0.37-0.55,0.37-0.91
			c0-0.29-0.1-0.52-0.29-0.69c-0.2-0.17-0.49-0.25-0.87-0.25H27.03z"/>
		<path class="st2" d="M35.39,55.23h-3.12l-1.24,1.83h-1.38l5.14-7.34h1.03l0.99,7.34h-1.2L35.39,55.23z M35.26,54.2l-0.35-2.86
			l-1.95,2.86H35.26z"/>
		<path class="st2" d="M38.83,49.71h5.34l-0.2,0.8l-4.45,4.66l-0.79,0.8h4.01l-0.27,1.09h-5.64l0.19-0.78l4.82-5.03l0.44-0.44h-3.72
			L38.83,49.71z"/>
		<path class="st2" d="M45.29,49.71h1.24l-1.84,7.34h-1.24L45.29,49.71z"/>
		<path class="st2" d="M46.6,53.71c0-0.54,0.1-1.06,0.31-1.55c0.21-0.5,0.5-0.93,0.87-1.31c0.37-0.38,0.8-0.68,1.3-0.9
			c0.5-0.22,1.04-0.34,1.62-0.34c0.5,0,0.97,0.09,1.4,0.27c0.43,0.18,0.8,0.42,1.11,0.73c0.31,0.31,0.55,0.67,0.73,1.1
			c0.17,0.42,0.26,0.88,0.26,1.36c0,0.54-0.1,1.06-0.31,1.55c-0.21,0.5-0.5,0.93-0.87,1.31c-0.37,0.38-0.8,0.68-1.3,0.9
			c-0.5,0.22-1.04,0.34-1.62,0.34c-0.5,0-0.97-0.09-1.4-0.27c-0.43-0.18-0.8-0.42-1.11-0.73c-0.31-0.31-0.55-0.67-0.73-1.1
			C46.69,54.64,46.6,54.19,46.6,53.71z M52.94,53.15c0-0.35-0.06-0.67-0.17-0.97c-0.12-0.3-0.28-0.55-0.48-0.77
			c-0.21-0.21-0.45-0.38-0.74-0.5c-0.29-0.12-0.6-0.18-0.93-0.18c-0.4,0-0.77,0.08-1.11,0.24c-0.34,0.16-0.63,0.38-0.87,0.65
			c-0.24,0.27-0.43,0.58-0.57,0.92c-0.14,0.35-0.2,0.7-0.2,1.08c0,0.35,0.06,0.67,0.17,0.97c0.12,0.3,0.28,0.55,0.48,0.77
			c0.21,0.22,0.45,0.38,0.74,0.5c0.29,0.12,0.6,0.18,0.93,0.18c0.38,0,0.73-0.08,1.06-0.23c0.33-0.15,0.62-0.36,0.87-0.62
			c0.25-0.26,0.45-0.57,0.59-0.92C52.86,53.91,52.94,53.54,52.94,53.15z"/>
		<path class="st2" d="M55.44,57.05h-1.17l1.84-7.34h1.09l2.39,4.84l0.34,0.69l0.18-0.81l1.16-4.72h1.16l-1.84,7.34h-1.03
			l-2.38-4.84l-0.38-0.81l-0.18,0.8L55.44,57.05z"/>
		<path class="st2" d="M63.77,49.71h4.56l-0.28,1.1h-3.32l-0.47,1.92h2.99l-0.27,1.1h-2.99l-0.53,2.14h3.38l-0.27,1.08h-4.62
			L63.77,49.71z"/>
		<path class="st2" d="M71.26,49.71h1.24l-1.84,7.34h-1.24L71.26,49.71z"/>
		<path class="st2" d="M73.74,57.05l1.55-6.24H72.9l0.28-1.1h6.02l-0.28,1.1h-2.39l-1.55,6.24H73.74z"/>
		<path class="st2" d="M82.07,55.23h-3.12l-1.24,1.83h-1.38l5.14-7.34h1.03l0.99,7.34h-1.2L82.07,55.23z M81.94,54.2l-0.35-2.86
			l-1.95,2.86H81.94z"/>
		<path class="st2" d="M88.67,57.05h-4.6l1.84-7.34h1.24l-1.56,6.26h3.37L88.67,57.05z"/>
		<path class="st2" d="M91.33,49.71h1.24l-1.84,7.34h-1.24L91.33,49.71z"/>
		<path class="st2" d="M97.04,55.23h-3.12l-1.24,1.83h-1.38l5.14-7.34h1.03l0.99,7.34h-1.2L97.04,55.23z M96.92,54.2l-0.35-2.86
			l-1.95,2.86H96.92z"/>
		<path class="st2" d="M100.22,57.05h-1.17l1.84-7.34h1.09l2.39,4.84l0.34,0.69l0.18-0.81l1.16-4.72h1.16l-1.84,7.34h-1.03
			l-2.38-4.84l-0.38-0.81l-0.18,0.8L100.22,57.05z"/>
		<path class="st2" d="M111.69,55.23h-3.12l-1.24,1.83h-1.38l5.14-7.34h1.03l0.99,7.34h-1.2L111.69,55.23z M111.56,54.2l-0.35-2.86
			l-1.95,2.86H111.56z"/>
		<path class="st2" d="M120.35,53.79l-1.2,1l-0.56,2.27h-1.24l1.84-7.34h1.24l-0.88,3.42l3.99-3.42h1.69l-3.93,3.29l2.51,4.05h-1.49
			L120.35,53.79z"/>
		<path class="st2" d="M125.94,49.71h1.24l-1.84,7.34h-1.24L125.94,49.71z"/>
		<path class="st2" d="M130.85,57.17c-0.48,0-0.93-0.08-1.36-0.24c-0.43-0.16-0.81-0.39-1.14-0.69c-0.33-0.3-0.59-0.66-0.79-1.09
			c-0.2-0.43-0.29-0.91-0.29-1.45c0-0.59,0.1-1.13,0.31-1.63c0.21-0.5,0.49-0.93,0.86-1.3c0.37-0.36,0.8-0.65,1.31-0.85
			c0.5-0.21,1.06-0.31,1.66-0.31c0.59,0,1.14,0.1,1.64,0.3c0.5,0.2,0.94,0.51,1.33,0.92l-0.34,1.34c-0.35-0.45-0.75-0.8-1.2-1.05
			c-0.45-0.26-0.96-0.38-1.53-0.38c-0.39,0-0.76,0.07-1.1,0.22c-0.34,0.15-0.63,0.35-0.89,0.6c-0.25,0.26-0.45,0.56-0.59,0.9
			c-0.14,0.35-0.21,0.72-0.21,1.12c0,0.39,0.07,0.74,0.2,1.04c0.13,0.3,0.31,0.56,0.54,0.77c0.23,0.21,0.49,0.37,0.8,0.48
			c0.3,0.11,0.63,0.17,0.97,0.17c0.37,0,0.75-0.06,1.15-0.19c0.4-0.13,0.77-0.34,1.13-0.63l-0.37,1.4c-0.27,0.17-0.58,0.3-0.93,0.4
			C131.65,57.12,131.27,57.17,130.85,57.17z"/>
		<path class="st2" d="M136.8,53.79l-1.2,1l-0.56,2.27h-1.24l1.84-7.34h1.24L136,53.13l3.99-3.42h1.69l-3.93,3.29l2.51,4.05h-1.49
			L136.8,53.79z"/>
		<path class="st2" d="M142.39,49.71h2.34c0.32,0,0.6,0.04,0.84,0.13c0.24,0.08,0.44,0.2,0.6,0.35c0.16,0.15,0.28,0.32,0.37,0.52
			c0.08,0.2,0.13,0.42,0.13,0.66c0,0.18-0.03,0.36-0.08,0.54c-0.06,0.18-0.14,0.35-0.25,0.51c-0.11,0.16-0.25,0.31-0.42,0.45
			c-0.17,0.13-0.36,0.24-0.59,0.34c0.31,0.14,0.56,0.34,0.73,0.6c0.17,0.26,0.26,0.56,0.26,0.9c0,0.3-0.06,0.59-0.17,0.87
			c-0.11,0.28-0.28,0.53-0.5,0.75c-0.22,0.22-0.49,0.4-0.81,0.53c-0.32,0.13-0.68,0.2-1.1,0.2h-3.19L142.39,49.71z M142.61,53.75
			l-0.57,2.28h1.67c0.23,0,0.43-0.04,0.6-0.12c0.17-0.08,0.31-0.18,0.43-0.3c0.12-0.12,0.2-0.26,0.26-0.41
			c0.06-0.15,0.09-0.31,0.09-0.46c0-0.29-0.09-0.53-0.28-0.71c-0.19-0.18-0.46-0.27-0.82-0.27H142.61z M143.35,50.78l-0.49,1.97
			h1.35c0.22,0,0.41-0.03,0.57-0.1c0.15-0.07,0.28-0.15,0.38-0.26c0.1-0.11,0.17-0.23,0.22-0.37c0.05-0.14,0.07-0.27,0.07-0.41
			c0-0.24-0.08-0.44-0.24-0.6c-0.16-0.15-0.41-0.23-0.73-0.23H143.35z"/>
		<path class="st2" d="M147.21,53.71c0-0.54,0.1-1.06,0.31-1.55c0.21-0.5,0.5-0.93,0.87-1.31c0.37-0.38,0.8-0.68,1.3-0.9
			c0.5-0.22,1.04-0.34,1.62-0.34c0.5,0,0.97,0.09,1.4,0.27c0.43,0.18,0.8,0.42,1.11,0.73c0.31,0.31,0.55,0.67,0.73,1.1
			c0.17,0.42,0.26,0.88,0.26,1.36c0,0.54-0.1,1.06-0.31,1.55c-0.21,0.5-0.5,0.93-0.87,1.31c-0.37,0.38-0.8,0.68-1.3,0.9
			c-0.5,0.22-1.04,0.34-1.62,0.34c-0.5,0-0.97-0.09-1.4-0.27c-0.43-0.18-0.8-0.42-1.11-0.73c-0.31-0.31-0.55-0.67-0.73-1.1
			C147.3,54.64,147.21,54.19,147.21,53.71z M153.55,53.15c0-0.35-0.06-0.67-0.17-0.97c-0.12-0.3-0.28-0.55-0.48-0.77
			c-0.21-0.21-0.45-0.38-0.74-0.5c-0.29-0.12-0.6-0.18-0.93-0.18c-0.4,0-0.77,0.08-1.11,0.24c-0.34,0.16-0.63,0.38-0.87,0.65
			c-0.24,0.27-0.43,0.58-0.57,0.92c-0.14,0.35-0.2,0.7-0.2,1.08c0,0.35,0.06,0.67,0.17,0.97c0.12,0.3,0.28,0.55,0.48,0.77
			c0.21,0.22,0.45,0.38,0.74,0.5c0.29,0.12,0.6,0.18,0.93,0.18c0.38,0,0.73-0.08,1.06-0.23c0.33-0.15,0.62-0.36,0.87-0.62
			c0.25-0.26,0.45-0.57,0.59-0.92C153.47,53.91,153.55,53.54,153.55,53.15z"/>
		<path class="st2" d="M157.77,54.15l-2.74,2.91h-1.5l3.76-3.9l-1.63-3.44h1.34l1.16,2.58l2.43-2.58h1.48l-3.44,3.59l1.76,3.75
			h-1.33L157.77,54.15z"/>
		<path class="st2" d="M162.73,49.71h1.24l-1.84,7.34h-1.24L162.73,49.71z"/>
		<path class="st2" d="M164.64,57.05h-1.17l1.84-7.34h1.09l2.39,4.84l0.34,0.69l0.18-0.81l1.16-4.72h1.16l-1.84,7.34h-1.03
			l-2.38-4.84l-0.38-0.81l-0.18,0.8L164.64,57.05z"/>
		<path class="st2" d="M176.48,57.05c-0.39,0.08-0.76,0.12-1.12,0.12c-0.55,0-1.05-0.08-1.51-0.25c-0.45-0.17-0.84-0.4-1.15-0.71
			c-0.32-0.3-0.56-0.66-0.74-1.08c-0.17-0.42-0.26-0.87-0.26-1.37c0-0.6,0.11-1.16,0.33-1.66c0.22-0.51,0.52-0.94,0.9-1.31
			c0.38-0.37,0.84-0.65,1.36-0.86c0.52-0.21,1.09-0.31,1.69-0.31c0.55,0,1.07,0.09,1.58,0.27c0.51,0.18,0.96,0.45,1.34,0.82
			L178.57,52c-0.38-0.41-0.79-0.72-1.24-0.93c-0.45-0.22-0.94-0.33-1.47-0.33c-0.46,0-0.87,0.08-1.23,0.25
			c-0.36,0.16-0.67,0.38-0.92,0.66c-0.25,0.27-0.44,0.58-0.58,0.93c-0.13,0.35-0.2,0.71-0.2,1.07c0,0.31,0.05,0.6,0.16,0.89
			c0.11,0.29,0.27,0.54,0.48,0.77c0.21,0.22,0.47,0.4,0.77,0.54c0.3,0.14,0.66,0.2,1.05,0.2c0.16,0,0.34-0.01,0.52-0.03
			c0.19-0.02,0.38-0.06,0.58-0.12l0.41-1.51h-1.41l0.26-1.08h2.65l-0.89,3.4C177.22,56.85,176.87,56.97,176.48,57.05z"/>
		<path class="st2" d="M183.9,54.74c-0.16,0-0.31-0.03-0.45-0.09c-0.14-0.06-0.26-0.14-0.36-0.24c-0.1-0.1-0.18-0.22-0.24-0.36
			c-0.06-0.14-0.08-0.29-0.08-0.45c0-0.16,0.04-0.32,0.1-0.48c0.07-0.16,0.16-0.31,0.28-0.44c0.12-0.13,0.26-0.24,0.42-0.32
			c0.16-0.08,0.35-0.12,0.55-0.12c0.34,0,0.61,0.11,0.82,0.33c0.21,0.22,0.32,0.49,0.32,0.81c0,0.16-0.03,0.32-0.1,0.49
			c-0.07,0.16-0.16,0.31-0.28,0.45c-0.12,0.13-0.27,0.24-0.44,0.32C184.29,54.7,184.11,54.74,183.9,54.74z"/>
		<path class="st2" d="M190.22,57.05h-1.2l1.84-7.34h1.19l1.66,3.7l3.43-3.7h1.33l-1.84,7.34h-1.19l1.28-5.09l0.13-0.45l-3.5,3.78
			l-1.74-3.9l-0.13,0.58L190.22,57.05z"/>
		<path class="st2" d="M205.85,49.71l-1.22,4.8c-0.22,0.86-0.62,1.52-1.21,1.97c-0.59,0.45-1.3,0.68-2.12,0.68
			c-0.49,0-0.92-0.08-1.3-0.25c-0.38-0.17-0.68-0.4-0.91-0.7c-0.23-0.3-0.38-0.66-0.46-1.07c-0.07-0.42-0.05-0.87,0.08-1.36
			l1.02-4.07h1.24l-1.03,4.15c-0.08,0.36-0.1,0.68-0.06,0.95c0.04,0.27,0.13,0.5,0.27,0.68c0.14,0.18,0.31,0.31,0.53,0.4
			c0.22,0.09,0.45,0.13,0.71,0.13c0.5,0,0.94-0.14,1.3-0.41c0.36-0.28,0.62-0.72,0.78-1.34l1.14-4.56H205.85z"/>
		<path class="st2" d="M210.22,55.23h-3.12l-1.24,1.83h-1.38l5.14-7.34h1.03l0.99,7.34h-1.2L210.22,55.23z M210.09,54.2l-0.35-2.86
			l-1.95,2.86H210.09z"/>
		<path class="st2" d="M214.95,53.89l-0.79,3.17h-1.23l0.8-3.21l-1.65-4.13h1.27l1.2,3.12l2.74-3.12h1.41L214.95,53.89z"/>
		<path class="st2" d="M220.74,57.05l1.55-6.24h-2.39l0.28-1.1h6.02l-0.28,1.1h-2.39l-1.55,6.24H220.74z"/>
		<path class="st2" d="M230.54,53.76h-3.44l-0.82,3.29h-1.24l1.84-7.34h1.24l-0.74,2.95h3.44l0.74-2.95h1.24l-1.84,7.34h-1.24
			L230.54,53.76z"/>
		<path class="st2" d="M237.27,55.23h-3.12l-1.24,1.83h-1.38l5.14-7.34h1.03l0.99,7.34h-1.2L237.27,55.23z M237.14,54.2l-0.35-2.86
			l-1.95,2.86H237.14z"/>
		<path class="st2" d="M241.11,49.71h1.24l-1.84,7.34h-1.24L241.11,49.71z"/>
		<path class="st2" d="M245.34,54.74c-0.16,0-0.31-0.03-0.45-0.09c-0.14-0.06-0.26-0.14-0.36-0.24c-0.1-0.1-0.18-0.22-0.24-0.36
			c-0.06-0.14-0.08-0.29-0.08-0.45c0-0.16,0.03-0.32,0.1-0.48c0.07-0.16,0.16-0.31,0.28-0.44c0.12-0.13,0.26-0.24,0.42-0.32
			c0.16-0.08,0.35-0.12,0.55-0.12c0.34,0,0.61,0.11,0.82,0.33c0.21,0.22,0.32,0.49,0.32,0.81c0,0.16-0.03,0.32-0.1,0.49
			c-0.07,0.16-0.16,0.31-0.28,0.45c-0.12,0.13-0.27,0.24-0.44,0.32C245.72,54.7,245.54,54.74,245.34,54.74z"/>
		<path class="st2" d="M248.77,54.87c0.76,0.83,1.52,1.24,2.28,1.24c0.36,0,0.65-0.1,0.87-0.3c0.21-0.2,0.32-0.43,0.32-0.7
			c0-0.14-0.05-0.29-0.14-0.45c-0.09-0.16-0.25-0.33-0.48-0.49l-1.23-0.88c-0.27-0.2-0.49-0.43-0.65-0.69
			c-0.16-0.27-0.24-0.56-0.24-0.89c0-0.28,0.05-0.55,0.14-0.8c0.09-0.25,0.24-0.48,0.43-0.67c0.19-0.2,0.43-0.35,0.72-0.47
			c0.29-0.12,0.62-0.17,1.01-0.17c0.26,0,0.5,0.03,0.73,0.08c0.23,0.06,0.44,0.13,0.64,0.22c0.2,0.09,0.37,0.19,0.53,0.3
			c0.16,0.12,0.3,0.23,0.41,0.34l-0.3,1.27c-0.34-0.43-0.7-0.73-1.06-0.91c-0.36-0.18-0.7-0.27-1.01-0.27
			c-0.19,0-0.35,0.02-0.48,0.07c-0.13,0.05-0.24,0.11-0.33,0.19c-0.08,0.08-0.14,0.17-0.18,0.28c-0.04,0.1-0.05,0.21-0.05,0.33
			c0,0.14,0.04,0.29,0.13,0.45c0.09,0.16,0.24,0.32,0.45,0.47l1.1,0.82c0.38,0.29,0.65,0.58,0.83,0.88c0.17,0.3,0.26,0.6,0.26,0.92
			c0,0.25-0.05,0.51-0.15,0.76c-0.1,0.26-0.25,0.48-0.45,0.69s-0.46,0.37-0.77,0.49c-0.31,0.13-0.68,0.19-1.11,0.19
			c-0.24,0-0.49-0.03-0.73-0.08c-0.24-0.06-0.47-0.13-0.69-0.23c-0.22-0.1-0.43-0.21-0.62-0.33c-0.19-0.12-0.36-0.25-0.5-0.39
			L248.77,54.87z"/>
		<path class="st2" d="M258.85,55.23h-3.12l-1.24,1.83h-1.38l5.14-7.34h1.03l0.99,7.34h-1.2L258.85,55.23z M258.72,54.2l-0.35-2.86
			l-1.95,2.86H258.72z"/>
		<path class="st2" d="M262.73,57.05h-1.03l-0.99-7.34h1.23l0.68,5.73l3.88-5.73h1.36L262.73,57.05z"/>
		<path class="st2" d="M270.28,55.23h-3.12l-1.24,1.83h-1.38l5.14-7.34h1.03l0.99,7.34h-1.2L270.28,55.23z M270.15,54.2l-0.35-2.86
			l-1.95,2.86H270.15z"/>
		<path class="st2" d="M273.07,57.05l1.55-6.24h-2.39l0.28-1.1h6.02l-0.28,1.1h-2.39l-1.55,6.24H273.07z"/>
		<path class="st2" d="M279.2,49.71h4.56l-0.28,1.1h-3.33l-0.47,1.92h2.99l-0.27,1.1h-2.99l-0.54,2.14h3.38l-0.27,1.08h-4.62
			L279.2,49.71z"/>
		<path class="st2" d="M286.51,54.74c-0.16,0-0.31-0.03-0.45-0.09c-0.14-0.06-0.26-0.14-0.36-0.24c-0.1-0.1-0.18-0.22-0.24-0.36
			c-0.06-0.14-0.08-0.29-0.08-0.45c0-0.16,0.03-0.32,0.1-0.48c0.07-0.16,0.16-0.31,0.28-0.44c0.12-0.13,0.26-0.24,0.42-0.32
			c0.16-0.08,0.35-0.12,0.55-0.12c0.34,0,0.61,0.11,0.82,0.33c0.21,0.22,0.32,0.49,0.32,0.81c0,0.16-0.03,0.32-0.1,0.49
			c-0.07,0.16-0.16,0.31-0.28,0.45c-0.12,0.13-0.27,0.24-0.44,0.32C286.89,54.7,286.71,54.74,286.51,54.74z"/>
		<path class="st2" d="M289.93,54.87c0.76,0.83,1.52,1.24,2.28,1.24c0.36,0,0.65-0.1,0.87-0.3c0.21-0.2,0.32-0.43,0.32-0.7
			c0-0.14-0.05-0.29-0.14-0.45c-0.09-0.16-0.25-0.33-0.48-0.49l-1.23-0.88c-0.27-0.2-0.49-0.43-0.65-0.69
			c-0.16-0.27-0.24-0.56-0.24-0.89c0-0.28,0.05-0.55,0.14-0.8c0.09-0.25,0.24-0.48,0.43-0.67c0.19-0.2,0.43-0.35,0.72-0.47
			c0.29-0.12,0.62-0.17,1.01-0.17c0.26,0,0.5,0.03,0.73,0.08c0.23,0.06,0.44,0.13,0.64,0.22c0.2,0.09,0.37,0.19,0.53,0.3
			c0.16,0.12,0.3,0.23,0.41,0.34l-0.3,1.27c-0.34-0.43-0.7-0.73-1.06-0.91c-0.36-0.18-0.7-0.27-1.01-0.27
			c-0.19,0-0.35,0.02-0.48,0.07c-0.13,0.05-0.24,0.11-0.33,0.19c-0.08,0.08-0.14,0.17-0.18,0.28c-0.04,0.1-0.05,0.21-0.05,0.33
			c0,0.14,0.04,0.29,0.13,0.45c0.09,0.16,0.24,0.32,0.45,0.47l1.1,0.82c0.38,0.29,0.65,0.58,0.83,0.88c0.17,0.3,0.26,0.6,0.26,0.92
			c0,0.25-0.05,0.51-0.15,0.76c-0.1,0.26-0.25,0.48-0.45,0.69s-0.46,0.37-0.77,0.49c-0.31,0.13-0.68,0.19-1.11,0.19
			c-0.24,0-0.49-0.03-0.73-0.08c-0.24-0.06-0.47-0.13-0.69-0.23c-0.22-0.1-0.43-0.21-0.62-0.33c-0.19-0.12-0.36-0.25-0.5-0.39
			L289.93,54.87z"/>
		<path class="st2" d="M300.43,53.76h-3.44l-0.82,3.29h-1.24l1.84-7.34h1.24l-0.74,2.95h3.44l0.74-2.95h1.24l-1.84,7.34h-1.24
			L300.43,53.76z"/>
		<path class="st2" d="M302.76,53.71c0-0.54,0.1-1.06,0.31-1.55c0.21-0.5,0.5-0.93,0.87-1.31c0.37-0.38,0.8-0.68,1.3-0.9
			c0.5-0.22,1.04-0.34,1.62-0.34c0.5,0,0.97,0.09,1.4,0.27c0.43,0.18,0.8,0.42,1.11,0.73c0.31,0.31,0.55,0.67,0.73,1.1
			c0.17,0.42,0.26,0.88,0.26,1.36c0,0.54-0.1,1.06-0.31,1.55c-0.21,0.5-0.5,0.93-0.87,1.31c-0.37,0.38-0.8,0.68-1.3,0.9
			c-0.5,0.22-1.04,0.34-1.62,0.34c-0.5,0-0.97-0.09-1.4-0.27c-0.43-0.18-0.8-0.42-1.11-0.73c-0.31-0.31-0.55-0.67-0.73-1.1
			C302.85,54.64,302.76,54.19,302.76,53.71z M309.1,53.15c0-0.35-0.06-0.67-0.17-0.97c-0.12-0.3-0.28-0.55-0.48-0.77
			c-0.21-0.21-0.45-0.38-0.74-0.5c-0.29-0.12-0.6-0.18-0.93-0.18c-0.4,0-0.77,0.08-1.11,0.24c-0.34,0.16-0.63,0.38-0.87,0.65
			c-0.24,0.27-0.43,0.58-0.57,0.92c-0.14,0.35-0.2,0.7-0.2,1.08c0,0.35,0.06,0.67,0.17,0.97c0.12,0.3,0.28,0.55,0.48,0.77
			c0.21,0.22,0.45,0.38,0.74,0.5s0.6,0.18,0.93,0.18c0.38,0,0.73-0.08,1.06-0.23c0.33-0.15,0.62-0.36,0.87-0.62
			c0.25-0.26,0.45-0.57,0.59-0.92C309.02,53.91,309.1,53.54,309.1,53.15z"/>
		<path class="st2" d="M311,53.71c0-0.54,0.1-1.06,0.31-1.55c0.21-0.5,0.5-0.93,0.87-1.31c0.37-0.38,0.8-0.68,1.3-0.9
			c0.5-0.22,1.04-0.34,1.62-0.34c0.5,0,0.97,0.09,1.4,0.27c0.43,0.18,0.8,0.42,1.11,0.73c0.31,0.31,0.55,0.67,0.73,1.1
			c0.17,0.42,0.26,0.88,0.26,1.36c0,0.54-0.1,1.06-0.31,1.55c-0.21,0.5-0.5,0.93-0.87,1.31c-0.37,0.38-0.8,0.68-1.3,0.9
			c-0.5,0.22-1.04,0.34-1.62,0.34c-0.5,0-0.97-0.09-1.4-0.27c-0.43-0.18-0.8-0.42-1.11-0.73c-0.31-0.31-0.55-0.67-0.73-1.1
			C311.08,54.64,311,54.19,311,53.71z M317.33,53.15c0-0.35-0.06-0.67-0.17-0.97c-0.12-0.3-0.28-0.55-0.48-0.77
			c-0.21-0.21-0.45-0.38-0.74-0.5c-0.29-0.12-0.6-0.18-0.93-0.18c-0.4,0-0.77,0.08-1.11,0.24c-0.34,0.16-0.63,0.38-0.87,0.65
			c-0.24,0.27-0.43,0.58-0.57,0.92c-0.14,0.35-0.2,0.7-0.2,1.08c0,0.35,0.06,0.67,0.17,0.97c0.12,0.3,0.28,0.55,0.48,0.77
			c0.21,0.22,0.45,0.38,0.74,0.5s0.6,0.18,0.93,0.18c0.38,0,0.73-0.08,1.06-0.23c0.33-0.15,0.62-0.36,0.87-0.62
			c0.25-0.26,0.45-0.57,0.59-0.92C317.26,53.91,317.33,53.54,317.33,53.15z"/>
		<path class="st2" d="M319.66,57.05l1.55-6.24h-2.39l0.28-1.1h6.02l-0.28,1.1h-2.39l-1.55,6.24H319.66z"/>
		<path class="st2" d="M327.32,49.71h2.34c0.32,0,0.6,0.04,0.84,0.13c0.24,0.08,0.44,0.2,0.6,0.35c0.16,0.15,0.28,0.32,0.37,0.52
			c0.08,0.2,0.13,0.42,0.13,0.66c0,0.18-0.03,0.36-0.08,0.54s-0.14,0.35-0.25,0.51c-0.11,0.16-0.25,0.31-0.42,0.45
			c-0.17,0.13-0.36,0.24-0.59,0.34c0.31,0.14,0.56,0.34,0.73,0.6c0.17,0.26,0.26,0.56,0.26,0.9c0,0.3-0.06,0.59-0.17,0.87
			c-0.11,0.28-0.28,0.53-0.5,0.75c-0.22,0.22-0.49,0.4-0.81,0.53c-0.32,0.13-0.68,0.2-1.1,0.2h-3.19L327.32,49.71z M327.54,53.75
			l-0.57,2.28h1.67c0.23,0,0.43-0.04,0.6-0.12c0.17-0.08,0.31-0.18,0.43-0.3c0.12-0.12,0.2-0.26,0.26-0.41
			c0.06-0.15,0.09-0.31,0.09-0.46c0-0.29-0.09-0.53-0.28-0.71c-0.19-0.18-0.46-0.27-0.82-0.27H327.54z M328.28,50.78l-0.49,1.97
			h1.35c0.22,0,0.41-0.03,0.57-0.1c0.15-0.07,0.28-0.15,0.38-0.26c0.1-0.11,0.17-0.23,0.21-0.37c0.05-0.14,0.07-0.27,0.07-0.41
			c0-0.24-0.08-0.44-0.24-0.6c-0.16-0.15-0.41-0.23-0.73-0.23H328.28z"/>
		<path class="st2" d="M332.14,53.71c0-0.54,0.1-1.06,0.31-1.55c0.21-0.5,0.5-0.93,0.87-1.31c0.37-0.38,0.8-0.68,1.3-0.9
			c0.5-0.22,1.04-0.34,1.62-0.34c0.5,0,0.97,0.09,1.4,0.27c0.43,0.18,0.8,0.42,1.11,0.73c0.31,0.31,0.55,0.67,0.73,1.1
			c0.17,0.42,0.26,0.88,0.26,1.36c0,0.54-0.1,1.06-0.31,1.55c-0.21,0.5-0.5,0.93-0.87,1.31c-0.37,0.38-0.8,0.68-1.3,0.9
			c-0.5,0.22-1.04,0.34-1.62,0.34c-0.5,0-0.97-0.09-1.4-0.27c-0.43-0.18-0.8-0.42-1.11-0.73c-0.31-0.31-0.55-0.67-0.73-1.1
			C332.23,54.64,332.14,54.19,332.14,53.71z M338.48,53.15c0-0.35-0.06-0.67-0.17-0.97c-0.12-0.3-0.28-0.55-0.48-0.77
			c-0.21-0.21-0.45-0.38-0.74-0.5c-0.29-0.12-0.6-0.18-0.93-0.18c-0.4,0-0.77,0.08-1.11,0.24c-0.34,0.16-0.63,0.38-0.87,0.65
			c-0.24,0.27-0.43,0.58-0.57,0.92c-0.14,0.35-0.2,0.7-0.2,1.08c0,0.35,0.06,0.67,0.17,0.97c0.12,0.3,0.28,0.55,0.48,0.77
			c0.21,0.22,0.45,0.38,0.74,0.5s0.6,0.18,0.93,0.18c0.38,0,0.73-0.08,1.06-0.23c0.33-0.15,0.62-0.36,0.87-0.62
			c0.25-0.26,0.45-0.57,0.59-0.92C338.4,53.91,338.48,53.54,338.48,53.15z"/>
		<path class="st2" d="M342.7,54.15l-2.74,2.91h-1.5l3.75-3.9l-1.63-3.44h1.34l1.16,2.58l2.43-2.58h1.48l-3.44,3.59l1.76,3.75h-1.33
			L342.7,54.15z"/>
		<path class="st2" d="M347.66,49.71h4.56l-0.28,1.1h-3.33l-0.47,1.92h2.99l-0.27,1.1h-2.99l-0.54,2.14h3.38l-0.27,1.08h-4.62
			L347.66,49.71z"/>
		<path class="st2" d="M354.96,54.74c-0.16,0-0.31-0.03-0.45-0.09c-0.14-0.06-0.26-0.14-0.36-0.24c-0.1-0.1-0.18-0.22-0.24-0.36
			c-0.06-0.14-0.08-0.29-0.08-0.45c0-0.16,0.03-0.32,0.1-0.48c0.07-0.16,0.16-0.31,0.28-0.44c0.12-0.13,0.26-0.24,0.42-0.32
			s0.35-0.12,0.55-0.12c0.34,0,0.61,0.11,0.82,0.33c0.21,0.22,0.32,0.49,0.32,0.81c0,0.16-0.03,0.32-0.1,0.49
			c-0.07,0.16-0.16,0.31-0.28,0.45c-0.12,0.13-0.27,0.24-0.44,0.32C355.34,54.7,355.16,54.74,354.96,54.74z"/>
		<path class="st2" d="M358.39,54.87c0.76,0.83,1.52,1.24,2.28,1.24c0.36,0,0.65-0.1,0.87-0.3c0.21-0.2,0.32-0.43,0.32-0.7
			c0-0.14-0.05-0.29-0.14-0.45c-0.09-0.16-0.25-0.33-0.48-0.49L360,53.29c-0.27-0.2-0.49-0.43-0.65-0.69
			c-0.16-0.27-0.24-0.56-0.24-0.89c0-0.28,0.05-0.55,0.14-0.8c0.09-0.25,0.24-0.48,0.43-0.67c0.19-0.2,0.43-0.35,0.72-0.47
			c0.29-0.12,0.62-0.17,1.01-0.17c0.26,0,0.5,0.03,0.73,0.08c0.23,0.06,0.44,0.13,0.64,0.22c0.2,0.09,0.37,0.19,0.53,0.3
			c0.16,0.12,0.3,0.23,0.41,0.34l-0.3,1.27c-0.34-0.43-0.7-0.73-1.06-0.91c-0.36-0.18-0.7-0.27-1.01-0.27
			c-0.19,0-0.35,0.02-0.48,0.07c-0.13,0.05-0.24,0.11-0.33,0.19c-0.08,0.08-0.14,0.17-0.18,0.28c-0.04,0.1-0.05,0.21-0.05,0.33
			c0,0.14,0.04,0.29,0.13,0.45c0.09,0.16,0.24,0.32,0.45,0.47l1.1,0.82c0.38,0.29,0.65,0.58,0.83,0.88c0.17,0.3,0.26,0.6,0.26,0.92
			c0,0.25-0.05,0.51-0.15,0.76c-0.1,0.26-0.25,0.48-0.45,0.69s-0.46,0.37-0.77,0.49c-0.31,0.13-0.68,0.19-1.11,0.19
			c-0.24,0-0.49-0.03-0.73-0.08c-0.24-0.06-0.47-0.13-0.69-0.23c-0.22-0.1-0.43-0.21-0.62-0.33c-0.19-0.12-0.36-0.25-0.5-0.39
			L358.39,54.87z"/>
		<path class="st2" d="M368.47,55.23h-3.12l-1.24,1.83h-1.38l5.14-7.34h1.03l0.99,7.34h-1.2L368.47,55.23z M368.34,54.2l-0.35-2.86
			l-1.95,2.86H368.34z"/>
		<path class="st2" d="M371.66,57.05h-1.2l1.84-7.34h1.19l1.66,3.7l3.43-3.7h1.33l-1.84,7.34h-1.19l1.28-5.09l0.13-0.45l-3.5,3.78
			l-1.74-3.9l-0.13,0.58L371.66,57.05z"/>
		<path class="st2" d="M381.27,49.71h2.34c0.32,0,0.6,0.04,0.84,0.13c0.24,0.08,0.44,0.2,0.6,0.35c0.16,0.15,0.28,0.32,0.37,0.52
			c0.08,0.2,0.13,0.42,0.13,0.66c0,0.18-0.03,0.36-0.08,0.54s-0.14,0.35-0.25,0.51c-0.11,0.16-0.25,0.31-0.42,0.45
			c-0.17,0.13-0.36,0.24-0.59,0.34c0.31,0.14,0.56,0.34,0.73,0.6c0.17,0.26,0.26,0.56,0.26,0.9c0,0.3-0.06,0.59-0.17,0.87
			s-0.28,0.53-0.5,0.75c-0.22,0.22-0.49,0.4-0.81,0.53c-0.32,0.13-0.68,0.2-1.1,0.2h-3.19L381.27,49.71z M381.49,53.75l-0.57,2.28
			h1.67c0.23,0,0.43-0.04,0.6-0.12c0.17-0.08,0.31-0.18,0.43-0.3c0.12-0.12,0.2-0.26,0.26-0.41c0.06-0.15,0.09-0.31,0.09-0.46
			c0-0.29-0.09-0.53-0.28-0.71c-0.19-0.18-0.46-0.27-0.82-0.27H381.49z M382.24,50.78l-0.49,1.97h1.35c0.22,0,0.41-0.03,0.57-0.1
			c0.15-0.07,0.28-0.15,0.38-0.26c0.1-0.11,0.17-0.23,0.21-0.37c0.05-0.14,0.07-0.27,0.07-0.41c0-0.24-0.08-0.44-0.24-0.6
			c-0.16-0.15-0.41-0.23-0.73-0.23H382.24z"/>
		<path class="st2" d="M386.1,53.71c0-0.54,0.1-1.06,0.31-1.55c0.21-0.5,0.5-0.93,0.87-1.31c0.37-0.38,0.8-0.68,1.3-0.9
			c0.5-0.22,1.04-0.34,1.62-0.34c0.5,0,0.97,0.09,1.4,0.27c0.43,0.18,0.8,0.42,1.11,0.73c0.31,0.31,0.55,0.67,0.73,1.1
			c0.17,0.42,0.26,0.88,0.26,1.36c0,0.54-0.1,1.06-0.31,1.55c-0.21,0.5-0.5,0.93-0.87,1.31c-0.37,0.38-0.8,0.68-1.3,0.9
			c-0.5,0.22-1.04,0.34-1.62,0.34c-0.5,0-0.97-0.09-1.4-0.27c-0.43-0.18-0.8-0.42-1.11-0.73c-0.31-0.31-0.55-0.67-0.73-1.1
			C386.18,54.64,386.1,54.19,386.1,53.71z M392.43,53.15c0-0.35-0.06-0.67-0.17-0.97c-0.12-0.3-0.28-0.55-0.48-0.77
			c-0.21-0.21-0.45-0.38-0.74-0.5c-0.29-0.12-0.6-0.18-0.93-0.18c-0.4,0-0.77,0.08-1.11,0.24c-0.34,0.16-0.63,0.38-0.87,0.65
			c-0.24,0.27-0.43,0.58-0.57,0.92c-0.14,0.35-0.2,0.7-0.2,1.08c0,0.35,0.06,0.67,0.17,0.97c0.12,0.3,0.28,0.55,0.48,0.77
			c0.21,0.22,0.45,0.38,0.74,0.5c0.29,0.12,0.6,0.18,0.93,0.18c0.38,0,0.73-0.08,1.06-0.23c0.33-0.15,0.62-0.36,0.87-0.62
			c0.25-0.26,0.45-0.57,0.59-0.92C392.36,53.91,392.43,53.54,392.43,53.15z"/>
	</g>
</g>
</svg>
